<?xml version="1.0" encoding="UTF-8"?> <svg xmlns="http://www.w3.org/2000/svg" xmlns:xlink="http://www.w3.org/1999/xlink" id="a0606298-2ab3-4669-b83b-57a6d0496d28" data-name="Camada 1" viewBox="0 0 111 89.7"><defs><linearGradient id="a7d74687-fea0-4bb9-a8fa-15894312714f" data-name="Gradiente sem nome" x1="71.88" y1="1064.64" x2="81.11" y2="1054.8" gradientTransform="translate(1.86 -1010.72)" gradientUnits="userSpaceOnUse"><stop offset="0.09" stop-color="#fff"></stop><stop offset="0.12" stop-color="#fafdf4"></stop><stop offset="0.17" stop-color="#ebf8d7"></stop><stop offset="0.23" stop-color="#d4f0a9"></stop><stop offset="0.31" stop-color="#b3e568"></stop><stop offset="0.4" stop-color="#8ad716"></stop><stop offset="0.42" stop-color="#81d405"></stop><stop offset="0.69" stop-color="#96fa01"></stop><stop offset="0.72" stop-color="#9f0"></stop></linearGradient><linearGradient id="a752d903-5ef6-4543-bfd8-e167274b60b0" data-name="Gradiente sem nome 2" x1="62.66" y1="1055.93" x2="71.89" y2="1046.09" xlink:href="#a7d74687-fea0-4bb9-a8fa-15894312714f"></linearGradient><linearGradient id="befa5dfb-0996-484e-a883-9cfc98cd4667" data-name="Gradiente sem nome 3" x1="67.85" y1="1060.1" x2="82.62" y2="1044.36" gradientTransform="translate(1.86 -1010.72)" gradientUnits="userSpaceOnUse"><stop offset="0.06" stop-color="#fff"></stop><stop offset="0.09" stop-color="#fafdf4"></stop><stop offset="0.14" stop-color="#ebf8d7"></stop><stop offset="0.22" stop-color="#d4f0a9"></stop><stop offset="0.3" stop-color="#b3e568"></stop><stop offset="0.4" stop-color="#8ad716"></stop><stop offset="0.42" stop-color="#81d405"></stop><stop offset="0.69" stop-color="#96fa01"></stop><stop offset="0.72" stop-color="#9f0"></stop></linearGradient><linearGradient id="ab9fc845-f4a1-42d9-a57b-d02b8ad5528e" data-name="Gradiente sem nome 4" x1="60.29" y1="1045.14" x2="86.29" y2="1021.97" gradientTransform="translate(1.86 -1010.72)" gradientUnits="userSpaceOnUse"><stop offset="0.08" stop-color="#fff"></stop><stop offset="0.09" stop-color="#fdfefb"></stop><stop offset="0.31" stop-color="#a5e04c"></stop><stop offset="0.41" stop-color="#81d405"></stop><stop offset="0.45" stop-color="#83d110"></stop><stop offset="0.53" stop-color="#89ca2e"></stop><stop offset="0.57" stop-color="#8cc63f"></stop><stop offset="0.94" stop-color="#8cc63f"></stop></linearGradient><linearGradient id="e8a4a389-4979-4548-a451-a4d981368e04" data-name="Gradiente sem nome 5" x1="48.19" y1="1043.39" x2="62.06" y2="1031.03" xlink:href="#ab9fc845-f4a1-42d9-a57b-d02b8ad5528e"></linearGradient><linearGradient id="ea104838-7bdc-428a-915c-6d46b6403f38" data-name="Gradiente sem nome 6" x1="79.21" y1="1066.09" x2="105.21" y2="1042.92" xlink:href="#ab9fc845-f4a1-42d9-a57b-d02b8ad5528e"></linearGradient><linearGradient id="b413393d-b284-4e5a-9170-e53aeedaef1f" data-name="Gradiente sem nome 7" x1="81.56" y1="1078.59" x2="95.43" y2="1066.23" xlink:href="#ab9fc845-f4a1-42d9-a57b-d02b8ad5528e"></linearGradient><linearGradient id="b37cd1d6-d66e-4b15-8bef-f7d264e67f50" data-name="Gradiente sem nome 8" x1="76.5" y1="1047.05" x2="116.38" y2="1011.52" xlink:href="#ab9fc845-f4a1-42d9-a57b-d02b8ad5528e"></linearGradient><linearGradient id="bd26f1b8-900a-4c2f-952d-0d128cfc2731" data-name="Gradiente sem nome 9" x1="52.56" y1="1054.54" x2="59.96" y2="1046.67" xlink:href="#befa5dfb-0996-484e-a883-9cfc98cd4667"></linearGradient><linearGradient id="ed5c173e-679a-46a5-87dd-d3c1d052ee0c" x1="82.47" y1="1085.36" x2="89.86" y2="1077.49" xlink:href="#befa5dfb-0996-484e-a883-9cfc98cd4667"></linearGradient></defs><title>logo</title><polygon points="108 33.31 109.75 35.47 36.48 35.47 34.51 33.31 108 33.31" style="fill: #4d4d4d"></polygon><path d="M82.21,82.67h0V17.19L84.64,15V80.5Z" style="fill: #4d4d4d"></path><path d="M62.54,66.81h0V2.71l1.32-1.36h0V65.46Z" style="fill: #4d4d4d"></path><polygon points="97.3 54.96 99.06 56.19 25.78 56.19 23.81 54.96 97.3 54.96" style="fill: #4d4d4d"></polygon><g style="isolation: isolate"><path d="M15.4,82H6.82q.21,2.77,3.61,2.77a7.27,7.27,0,0,0,3.82-1v2.83a10.32,10.32,0,0,1-4.74,1A6.8,6.8,0,0,1,4.56,85.8,6.35,6.35,0,0,1,2.8,81a6.66,6.66,0,0,1,1.9-5,6.43,6.43,0,0,1,4.68-1.85,5.86,5.86,0,0,1,4.45,1.65A6.23,6.23,0,0,1,15.4,80.3Zm-3.76-2.4c0-1.83-.76-2.74-2.29-2.74a2.2,2.2,0,0,0-1.69.79,3.49,3.49,0,0,0-.86,2Z" style="fill: #4d4d4d"></path><path d="M20.93,82.89a1.74,1.74,0,0,0,.4,1.22,1.41,1.41,0,0,0,1.07.42,3.91,3.91,0,0,0,.67-.07l.67-.12V87.1c-.49.12-1,.22-1.55.3a11.73,11.73,0,0,1-1.7.12A4.14,4.14,0,0,1,19,87.26a3.38,3.38,0,0,1-1.13-.75,3.48,3.48,0,0,1-.72-1.19,4.52,4.52,0,0,1-.26-1.56V68.37h4Z" style="fill: #4d4d4d"></path><path d="M26.59,72.47a2.44,2.44,0,0,1-1.68-.59,1.87,1.87,0,0,1-.65-1.45A1.78,1.78,0,0,1,24.91,69a2.52,2.52,0,0,1,1.68-.56,2.5,2.5,0,0,1,1.69.56,1.78,1.78,0,0,1,.65,1.44,1.84,1.84,0,0,1-.65,1.47A2.45,2.45,0,0,1,26.59,72.47Zm2,10.42a1.69,1.69,0,0,0,.4,1.22,1.39,1.39,0,0,0,1.06.42,3.71,3.71,0,0,0,.67-.07l.67-.12V87.1c-.49.12-1,.22-1.55.3a11.63,11.63,0,0,1-1.7.12,4,4,0,0,1-1.47-.26,3.29,3.29,0,0,1-1.13-.75,3.5,3.5,0,0,1-.73-1.19,4.52,4.52,0,0,1-.25-1.56V74.48h4Z" style="fill: #4d4d4d"></path><path d="M45,87.19H40.91V80.13c0-2-.73-3-2.18-3A2.2,2.2,0,0,0,37,78a2.92,2.92,0,0,0-.68,2v7.25H32.25V74.48h4.06v2h0a4.69,4.69,0,0,1,4.23-2.32q4.36,0,4.37,5.24Z" style="fill: #4d4d4d"></path><path d="M55.94,71.37a4.47,4.47,0,0,0-1.51-.29c-1.3,0-2,.68-2,2v1.35h3v2.89h-3v9.82h-4V77.37H46.22V74.48h2.21V72.9a4.49,4.49,0,0,1,1.47-3.5,5.67,5.67,0,0,1,4-1.33,7.11,7.11,0,0,1,2.06.25Z" style="fill: #4d4d4d"></path><path d="M62.89,87.51a7.22,7.22,0,0,1-5.17-1.79A7.19,7.19,0,0,1,57.79,76a7.55,7.55,0,0,1,5.28-1.78A7.11,7.11,0,0,1,68.21,76a6.23,6.23,0,0,1,1.86,4.71,6.59,6.59,0,0,1-1.92,5A7.31,7.31,0,0,1,62.89,87.51ZM63,77.17a2.75,2.75,0,0,0-2.24,1,4.13,4.13,0,0,0-.8,2.71Q60,84.5,63,84.5t2.92-3.76Q65.94,77.17,63,77.17Z" style="fill: #4d4d4d"></path><path d="M80.47,78a3.53,3.53,0,0,0-1.7-.39,2.49,2.49,0,0,0-2.07.94A4,4,0,0,0,76,81.12v6.07H71.89V74.48H76v2.36h0a3.5,3.5,0,0,1,3.47-2.58,2.88,2.88,0,0,1,1,.14Z" style="fill: #4d4d4d"></path></g><rect x="76.03" y="46.87" width="4.42" height="4.51" style="fill: url(#a7d74687-fea0-4bb9-a8fa-15894312714f)"></rect><rect x="66.81" y="38.16" width="4.42" height="4.51" style="fill: url(#a752d903-5ef6-4543-bfd8-e167274b60b0)"></rect><rect x="73.37" y="38.11" width="7.07" height="7.22" style="fill: url(#befa5dfb-0996-484e-a883-9cfc98cd4667)"></rect><rect x="67.24" y="17.21" width="13.26" height="13.54" style="fill: url(#ab9fc845-f4a1-42d9-a57b-d02b8ad5528e)"></rect><rect x="52.76" y="23.49" width="7.07" height="7.22" style="fill: url(#e8a4a389-4979-4548-a451-a4d981368e04)"></rect><rect x="86.15" y="38.17" width="13.26" height="13.54" style="fill: url(#ea104838-7bdc-428a-915c-6d46b6403f38)"></rect><rect x="86.13" y="58.69" width="7.07" height="7.22" style="fill: url(#b413393d-b284-4e5a-9170-e53aeedaef1f)"></rect><rect x="86.16" y="9.95" width="20.33" height="20.77" style="fill: url(#b37cd1d6-d66e-4b15-8bef-f7d264e67f50)"></rect><rect x="56.26" y="38.18" width="3.54" height="3.61" style="fill: url(#bd26f1b8-900a-4c2f-952d-0d128cfc2731)"></rect><rect x="86.16" y="69" width="3.54" height="3.61" style="fill: url(#ed5c173e-679a-46a5-87dd-d3c1d052ee0c)"></rect></svg> 